<svg xmlns="http://www.w3.org/2000/svg" viewBox="0 0 512 512" width="64" height="64">
  <g fill="#0d47a1">
    <path d="M464,96H384V56c0-13.3-10.7-24-24-24H152c-13.3,0-24,10.7-24,24v40H48c-26.5,0-48,21.5-48,48v288c0,26.5,21.5,48,48,48h416c26.5,0,48-21.5,48-48V144C512,117.5,490.5,96,464,96z M128,424c0,4.4-3.6,8-8,8H56c-4.4,0-8-3.6-8-8v-32c0-4.4,3.6-8,8-8h64c4.4,0,8,3.6,8,8V424z M128,328c0,4.4-3.6,8-8,8H56c-4.4,0-8-3.6-8-8v-32c0-4.4,3.6-8,8-8h64c4.4,0,8,3.6,8,8V328z M128,232c0,4.4-3.6,8-8,8H56c-4.4,0-8-3.6-8-8v-32c0-4.4,3.6-8,8-8h64c4.4,0,8,3.6,8,8V232z M384,424c0,4.4-3.6,8-8,8h-64c-4.4,0-8-3.6-8-8v-32c0-4.4,3.6-8,8-8h64c4.4,0,8,3.6,8,8V424z M384,328c0,4.4-3.6,8-8,8h-64c-4.4,0-8-3.6-8-8v-32c0-4.4,3.6-8,8-8h64c4.4,0,8,3.6,8,8V328z M384,232c0,4.4-3.6,8-8,8h-64c-4.4,0-8-3.6-8-8v-32c0-4.4,3.6-8,8-8h64c4.4,0,8,3.6,8,8V232z">
    </path>
  </g>
  <circle cx="256" cy="208" r="80" fill="#1565c0" />
  <path d="M256,128c-44.1,0-80,35.9-80,80s35.9,80,80,80s80-35.9,80-80S300.1,128,256,128z M256,248c-22.1,0-40-17.9-40-40s17.9-40,40-40s40,17.9,40,40S278.1,248,256,248z" fill="#0d47a1" />
</svg>
